<svg xmlns="http://www.w3.org/2000/svg" xmlns:xlink="http://www.w3.org/1999/xlink" viewBox="0 0 145 43" overflow="visible"><g><path d="M 21.128 31.811 C 15.117 15.782 0 21.815 0 21.815 C 0 21.815 4.88 37.312 21.128 31.811" fill="rgb(235,131,36)"></path><path d="M 23.478 19.638 C 26.93 2.898 10.861 0 10.861 0 C 10.861 0 6.754 15.675 23.478 19.638" fill="rgb(149,195,70)"></path><path d="M 44.836 33.408 C 44.836 25.187 30.016 31.634 30.016 20.041 C 30.016 8.447 31.504 11.641 41.562 11.641 C 51.62 11.641 48.288 12.351 48.288 12.351 L 48.288 19.272 L 44.062 19.272 L 44.062 16.137 C 44.062 16.137 43.11 15.723 41.265 15.723 C 39.42 15.723 35.313 16.255 35.313 19.804 C 35.313 26.547 49.954 21.046 49.954 33.231 C 49.954 45.416 49.656 42.754 38.229 42.754 C 26.803 42.754 29.421 41.157 29.421 41.157 L 29.421 33.349 L 33.706 33.349 L 33.706 37.667 C 33.706 37.667 34.54 38.791 38.229 38.791 C 44.717 38.791 44.836 34.414 44.836 33.408 M 66.44 35.893 C 66.44 36.248 66.44 37.785 68.047 37.785 C 69.654 37.785 69.951 37.312 70.427 35.242 L 72.094 37.49 C 72.094 37.49 72.213 37.667 72.213 37.845 C 72.213 38.673 70.606 42.162 66.499 42.162 C 62.393 42.162 62.095 39.678 62.095 37.194 L 62.095 30.155 C 62.095 27.73 59.953 27.434 59.417 27.434 C 56.858 27.434 55.489 29.623 55.489 32.166 L 55.489 41.689 L 51.085 41.689 L 51.085 27.493 L 49.121 27.493 L 49.121 23.826 L 55.191 23.826 L 55.191 25.66 C 55.191 25.66 55.251 25.66 55.37 25.482 C 55.37 25.482 56.977 23.412 60.548 23.412 C 64.119 23.412 66.38 25.187 66.38 28.972 L 66.38 35.893 Z M 86.913 35.893 C 86.913 36.248 86.913 37.845 88.52 37.845 C 90.127 37.845 90.424 37.371 90.901 35.301 L 92.567 37.549 C 92.567 37.549 92.686 37.785 92.686 37.963 C 92.686 38.791 91.198 42.222 87.032 42.222 C 82.866 42.222 83.64 40.861 83.283 39.382 C 83.283 39.323 83.283 39.264 83.223 39.264 C 83.164 39.264 83.104 39.382 83.104 39.382 C 81.914 41.393 79.652 42.517 77.152 42.517 C 70.903 42.517 70.189 35.952 70.189 34.118 C 70.189 28.913 72.927 23.116 81.378 23.116 C 89.829 23.116 86.913 23.826 86.913 23.885 Z M 82.568 27.079 C 82.568 27.079 81.973 26.843 80.545 26.843 C 79.117 26.843 74.831 28.322 74.831 33.527 C 74.831 38.732 74.831 38.14 78.283 38.14 C 81.735 38.14 82.628 35.715 82.628 33.645 L 82.628 27.02 Z M 100.244 42.458 C 92.329 42.458 90.662 36.662 90.662 33.408 C 90.662 30.155 91.734 23.116 101.256 23.116 C 110.779 23.116 105.303 23.708 105.303 23.708 L 105.303 29.859 L 101.554 29.859 L 101.554 27.079 C 101.554 27.079 101.018 26.843 100.185 26.843 C 97.923 26.843 95.186 28.499 95.186 33.231 C 95.186 37.963 96.912 38.673 100.899 38.673 C 104.887 38.673 108.934 35.242 110.303 32.285 C 110.303 32.344 111.433 33.882 111.969 34.532 C 112.088 34.71 112.088 34.769 112.088 34.887 C 112.088 35.833 108.517 42.34 100.185 42.34 M 120.837 36.011 C 120.837 32.58 118.813 31.811 116.671 31.811 C 114.528 31.811 114.588 32.166 114.588 32.166 L 114.588 41.808 L 110.184 41.808 L 110.184 16.314 L 108.517 16.314 L 108.517 12.647 L 114.588 12.647 L 114.588 28.795 L 120.123 23.885 L 125.836 23.885 L 119.885 28.972 C 119.885 28.972 119.885 29.031 119.944 29.031 C 122.027 29.031 125.181 30.51 125.181 34.296 L 125.181 35.419 C 125.181 36.307 125.538 37.845 127.205 37.845 C 128.871 37.845 129.645 37.312 130.419 35.005 L 132.085 37.312 C 132.085 37.312 132.204 37.49 132.204 37.667 C 132.204 38.613 130.359 42.162 125.955 42.162 C 121.551 42.162 120.837 39.856 120.837 37.135 L 120.837 35.893 Z M 140.536 36.366 C 140.536 32.403 130.716 35.242 130.716 28.736 C 130.716 22.229 130.835 23.353 138.751 23.353 C 146.666 23.353 143.75 23.708 143.75 23.708 L 143.75 27.198 C 143.75 27.198 141.786 26.725 138.81 26.725 C 135.835 26.725 135.12 26.725 135.12 28.558 C 135.12 31.575 145 29.15 145 36.129 C 145 43.109 144.107 42.281 136.489 42.281 C 128.871 42.281 130.24 41.453 130.24 41.453 L 130.24 34.177 L 134.109 34.177 L 134.109 38.377 C 134.109 38.377 134.882 38.732 136.37 38.732 C 140.06 38.732 140.477 37.371 140.477 36.248" fill="rgb(154,135,120)"></path></g></svg>